<?xml version="1.0" encoding="UTF-8" standalone="no"?>
<svg
   xmlns:dc="http://purl.org/dc/elements/1.1/"
   xmlns:cc="http://creativecommons.org/ns#"
   xmlns:rdf="http://www.w3.org/1999/02/22-rdf-syntax-ns#"
   xmlns:svg="http://www.w3.org/2000/svg"
   xmlns="http://www.w3.org/2000/svg"
   xmlns:sodipodi="http://sodipodi.sourceforge.net/DTD/sodipodi-0.dtd"
   xmlns:inkscape="http://www.inkscape.org/namespaces/inkscape"
   id="ae0ed483-2375-4630-8129-5bebfcf074ba"
   data-name="Layer 1"
   width="658.71676"
   height="482.74126"
   viewBox="0 0 658.71676 482.74126"
   version="1.1"
   sodipodi:docname="portrait.svg"
   inkscape:version="1.0.2 (e86c870879, 2021-01-15)">
  <metadata
     id="metadata929">
    <rdf:RDF>
      <cc:Work
         rdf:about="">
        <dc:format>image/svg+xml</dc:format>
        <dc:type
           rdf:resource="http://purl.org/dc/dcmitype/StillImage" />
        <dc:title></dc:title>
      </cc:Work>
    </rdf:RDF>
  </metadata>
  <defs
     id="defs927" />
  <sodipodi:namedview
     pagecolor="#ffffff"
     bordercolor="#666666"
     borderopacity="1"
     objecttolerance="10"
     gridtolerance="10"
     guidetolerance="10"
     inkscape:pageopacity="0"
     inkscape:pageshadow="2"
     inkscape:window-width="1896"
     inkscape:window-height="1037"
     id="namedview925"
     showgrid="false"
     inkscape:zoom="1.7690636"
     inkscape:cx="330.58121"
     inkscape:cy="259.83787"
     inkscape:window-x="12"
     inkscape:window-y="31"
     inkscape:window-maximized="0"
     inkscape:current-layer="ae0ed483-2375-4630-8129-5bebfcf074ba" />
  <g
     id="g981"
     inkscape:export-filename="/home/ak/g981.png"
     inkscape:export-xdpi="96"
     inkscape:export-ydpi="96"
     transform="matrix(-1,0,0,1,658.68859,0)">
    <path
       d="m 555.73364,405.49075 a 30.28061,30.28061 0 0 0 -24.18012,12.02346 19.9375,19.9375 0 0 0 -27.8185,18.30907 h 82.33115 a 30.33247,30.33247 0 0 0 -30.33253,-30.33253 z"
       transform="translate(-270.64162,-208.62937)"
       fill="#e6e6e6"
       id="path900" />
    <path
       d="M 669.46656,384.5 H 309.13411 a 18.20279,18.20279 0 0 0 -18.177,18.177 v 270.51662 a 18.20278,18.20278 0 0 0 18.177,18.177 h 360.33245 a 18.20278,18.20278 0 0 0 18.177,-18.177 V 402.677 a 18.20279,18.20279 0 0 0 -18.177,-18.177 z m 16.03854,288.69362 a 16.05809,16.05809 0 0 1 -16.03854,16.03854 H 309.13411 A 16.05809,16.05809 0 0 1 293.09557,673.19362 V 402.677 a 16.05809,16.05809 0 0 1 16.03854,-16.03854 H 669.46656 A 16.05809,16.05809 0 0 1 685.5051,402.677 Z"
       transform="translate(-270.64162,-208.62937)"
       fill="#3f3d56"
       id="path902" />
    <circle
       cx="80.727303"
       cy="289.7442"
       r="80.727303"
       fill="#f9a826"
       id="circle904" />
    <path
       d="m 687.64357,613.39127 v 22.3791 H 290.9571 v -22.48606 l 2.13847,-3.07934 125.76364,-181.09652 a 6.196,6.196 0 0 1 10.17914,0 l 84.34119,121.43311 60.03749,-85.6885 a 6.19679,6.19679 0 0 1 10.15774,0 L 685.5051,610.33327 Z"
       transform="translate(-270.64162,-208.62937)"
       fill="#3f3d56"
       id="path906" />
    <path
       d="M 378.09981,661.432 H 315.0149 a 1.06924,1.06924 0 0 1 0,-2.13847 h 63.08491 a 1.069235,1.069235 0 1 1 0,2.13847 z"
       transform="translate(-270.64162,-208.62937)"
       fill="#3f3d56"
       id="path908" />
    <path
       d="m 473.2618,661.432 h -63.08491 a 1.06924,1.06924 0 1 1 0,-2.13847 h 63.08491 a 1.069235,1.069235 0 0 1 0,2.13847 z"
       transform="translate(-270.64162,-208.62937)"
       fill="#3f3d56"
       id="path910" />
    <path
       d="m 568.42378,661.432 h -63.08491 a 1.06924,1.06924 0 0 1 0,-2.13847 h 63.08491 a 1.069235,1.069235 0 1 1 0,2.13847 z"
       transform="translate(-270.64162,-208.62937)"
       fill="#3f3d56"
       id="path912" />
    <path
       d="m 663.58577,661.432 h -63.08492 a 1.06924,1.06924 0 0 1 0,-2.13847 h 63.08492 a 1.069235,1.069235 0 0 1 0,2.13847 z"
       transform="translate(-270.64162,-208.62937)"
       fill="#3f3d56"
       id="path914" />
    <ellipse
       cx="771.11346"
       cy="360.02396"
       rx="186.04703"
       ry="115.47746"
       transform="rotate(-42.14571,365.07296,606.89664)"
       fill="#e6e6e6"
       id="ellipse916"
       style="fill:#459661;fill-opacity:1" />
    <path
       d="m 626.94259,634.38948 c -10.27371,-21.223 -13.91186,-45.13592 -12.12314,-68.54886 a 164.7354,164.7354 0 0 1 20.13559,-66.263 c 10.82079,-19.78486 25.12269,-37.49483 41.37971,-53.0678 17.25414,-16.52812 36.71035,-30.5595 57.181,-42.82246 21.61642,-12.94932 44.33029,-23.95387 67.30849,-34.25008 q 4.29545,-1.92474 8.60417,-3.81958 c 1.88513,-0.83 0.25458,-3.5947 -1.619,-2.76976 -23.42777,10.31537 -46.65818,21.18613 -68.87261,33.94136 -21.22249,12.18567 -41.5263,26.12564 -59.66615,42.59873 -16.92179,15.367 -32.00276,32.94605 -43.69622,52.62852 a 172.042,172.042 0 0 0 -23.16477,65.99464 c -2.99577,23.51793 -0.67967,47.9745 8.23618,70.04087 q 1.63083,4.03625 3.52694,7.95644 c 0.89923,1.85758 3.66623,0.2329 2.76977,-1.619 z"
       transform="translate(-270.64162,-208.62937)"
       fill="#cccccc"
       id="path918" />
    <path
       d="m 715.42365,411.86714 a 193.82021,193.82021 0 0 1 3.9125,-52.178 197.01375,197.01375 0 0 1 17.5945,-49.30733 193.75607,193.75607 0 0 1 15.50017,-25.09342 c 1.21678,-1.67076 -1.56508,-3.27313 -2.76977,-1.619 a 196.924,196.924 0 0 0 -25.06267,46.63489 200.26218,200.26218 0 0 0 -11.88947,51.61944 193.67815,193.67815 0 0 0 -0.493,29.94343 c 0.12494,2.051 3.33351,2.0652 3.20771,0 z"
       transform="translate(-270.64162,-208.62937)"
       fill="#cccccc"
       id="path920" />
    <path
       d="M 490.90419,456.13876 A 37.35921,37.35921 0 0 0 461.07157,470.9729 24.59823,24.59823 0 0 0 426.75,493.562 h 101.5774 a 37.42318,37.42318 0 0 0 -37.42321,-37.42324 z"
       transform="translate(-270.64162,-208.62937)"
       fill="#cccccc"
       id="path922" />
    <path
       style="fill:#459661;fill-opacity:1;stroke-width:0.565271"
       d="m 156.61816,281.64618 c 0.94954,-7.44859 6.71383,-15.20565 13.8498,-18.63777 3.13208,-1.50641 4.54242,-1.82849 8.8784,-2.0276 3.56856,-0.16387 6.05564,0.0273 8.08216,0.62141 l 2.92735,0.85813 3.84225,-3.76161 c 4.48299,-4.38888 8.51616,-6.93184 14.28579,-9.00734 3.65721,-1.3156 5.01245,-1.49416 11.49456,-1.51448 6.23064,-0.0195 7.95045,0.17758 11.30541,1.2957 14.63932,4.87893 23.86879,16.37841 26.04931,32.4562 l 0.36415,2.68503 H 206.9686 156.23985 Z"
       id="path931" />
    <path
       style="fill:#459661;fill-opacity:1;stroke-width:0.565271"
       d="m 156.72414,282.77672 c 1.44416,-8.54792 6.49013,-15.61934 13.85939,-19.42256 2.60325,-1.34351 3.88385,-1.60474 8.86625,-1.80857 3.69038,-0.15098 6.75798,0.0234 8.37459,0.476 l 2.55107,0.71426 2.64819,-2.5356 c 6.09934,-5.84001 11.81829,-9.30525 18.02536,-10.92199 3.72205,-0.96947 13.85876,-1.10591 17.69117,-0.23812 1.39905,0.3168 4.93167,1.73233 7.85028,3.14563 7.26527,3.51812 12.38557,8.58902 16.0362,15.88152 2.28021,4.55495 2.92876,6.66178 4.70202,15.2747 l 0.26185,1.27186 h -50.58837 -50.58838 z"
       id="path933" />
    <path
       style="fill:#459661;fill-opacity:1;stroke-width:0.565271"
       d="m 233.54954,224.55383 c 1.1041,-6.86135 6.24876,-13.3245 12.45448,-15.64636 3.51628,-1.31561 9.29183,-1.55816 12.71083,-0.5338 2.11592,0.63395 2.13871,0.6231 5.36358,-2.55064 4.37131,-4.30203 10.84689,-7.48955 17.01496,-8.3754 16.41694,-2.35776 31.76469,9.6572 33.903,26.54093 l 0.37586,2.96767 H 274.2676 233.16296 Z"
       id="path935" />
    <path
       style="fill:#459661;fill-opacity:1;stroke-width:0.565271"
       d="m 233.89218,224.36608 c 0.67252,-3.59982 3.63092,-8.91283 6.31116,-11.33427 4.61061,-4.1654 10.2163,-5.5815 17.77169,-4.48944 l 2.94978,0.42636 3.7479,-3.17958 c 13.16923,-11.17225 29.73468,-10.95737 41.22683,0.53478 4.95204,4.95204 7.49193,10.26894 8.97849,18.79517 l 0.3203,1.83713 h -40.89502 -40.89502 z"
       id="path937" />
    <path
       style="fill:#f3e7d8;fill-opacity:1;stroke-width:0.565271"
       d="m 156.72414,282.77672 c 1.44416,-8.54792 6.49013,-15.61934 13.85939,-19.42256 2.60325,-1.34351 3.88385,-1.60474 8.86625,-1.80857 3.69038,-0.15098 6.75798,0.0234 8.37459,0.476 l 2.55107,0.71426 2.64819,-2.5356 c 9.11409,-8.72657 16.14625,-11.76373 27.23747,-11.76373 7.16423,0 11.03529,0.90987 16.93934,3.9815 9.97145,5.18771 17.04671,14.86205 19.20543,26.26049 0.35329,1.86539 0.76436,3.96396 0.91349,4.66348 l 0.27115,1.27186 h -50.58837 -50.58838 z"
       id="path939" />
    <path
       style="fill:#effcdf;fill-opacity:0;stroke-width:0.565271"
       d="m 233.89218,224.36608 c 0.26614,-1.42459 1.28872,-4.10016 2.27239,-5.94572 4.30504,-8.07708 12.26749,-11.59422 22.34821,-9.87155 2.27207,0.38827 2.49926,0.28332 6.30623,-2.91315 6.47007,-5.4325 13.1591,-8.07351 20.44823,-8.07351 14.91301,0 27.37645,11.48771 29.59093,27.27431 l 0.29735,2.11977 H 274.2819 233.40829 Z"
       id="path949" />
    <path
       style="fill:#effcdf;fill-opacity:0;stroke-width:0.565271"
       d="m 233.89218,224.36608 c 0.26614,-1.42459 1.28872,-4.10016 2.27239,-5.94572 4.30504,-8.07708 12.26749,-11.59422 22.34821,-9.87155 2.27207,0.38827 2.49926,0.28332 6.30623,-2.91315 6.47007,-5.4325 13.1591,-8.07351 20.44823,-8.07351 14.91301,0 27.37645,11.48771 29.59093,27.27431 l 0.29735,2.11977 H 274.2819 233.40829 Z"
       id="path951" />
    <path
       style="fill:#effcdf;fill-opacity:0;stroke-width:0.565271"
       d="m 233.89218,224.36608 c 0.26614,-1.42459 1.28872,-4.10016 2.27239,-5.94572 4.30504,-8.07708 12.26749,-11.59422 22.34821,-9.87155 2.27207,0.38827 2.49926,0.28332 6.30623,-2.91315 6.47007,-5.4325 13.1591,-8.07351 20.44823,-8.07351 14.91301,0 27.37645,11.48771 29.59093,27.27431 l 0.29735,2.11977 H 274.2819 233.40829 Z"
       id="path953" />
    <path
       style="fill:#effcf7;fill-opacity:0;stroke-width:0.565271"
       d="m 233.89218,224.36608 c 0.26614,-1.42459 1.28872,-4.10016 2.27239,-5.94572 4.30504,-8.07708 12.26749,-11.59422 22.34821,-9.87155 2.27207,0.38827 2.49926,0.28332 6.30623,-2.91315 6.47007,-5.4325 13.1591,-8.07351 20.44823,-8.07351 14.91301,0 27.37645,11.48771 29.59093,27.27431 l 0.29735,2.11977 H 274.2819 233.40829 Z"
       id="path955" />
    <path
       style="fill:#effcf7;fill-opacity:0.940062;stroke-width:0.565271"
       d="m 233.89218,224.36608 c 0.26614,-1.42459 1.28872,-4.10016 2.27239,-5.94572 4.30504,-8.07708 12.26749,-11.59422 22.34821,-9.87155 2.27207,0.38827 2.49926,0.28332 6.30623,-2.91315 6.47007,-5.4325 13.1591,-8.07351 20.44823,-8.07351 14.91301,0 27.37645,11.48771 29.59093,27.27431 l 0.29735,2.11977 H 274.2819 233.40829 Z"
       id="path957"
       inkscape:export-filename="/home/ak/path957.png"
       inkscape:export-xdpi="96"
       inkscape:export-ydpi="96" />
  </g>
</svg>
